<svg width="21" height="22" viewBox="0 0 21 22" fill="none" xmlns="http://www.w3.org/2000/svg">
<path d="M17.46 7L18.25 5.25L20 4.46C20.39 4.28 20.39 3.73 20 3.55L18.25 2.76L17.46 1C17.28 0.61 16.73 0.61 16.55 1L15.76 2.75L14 3.54C13.61 3.72 13.61 4.27 14 4.45L15.75 5.24L16.54 7C16.72 7.39 17.28 7.39 17.46 7ZM9.50001 8.5L7.91001 5C7.56001 4.22 6.44001 4.22 6.09001 5L4.50001 8.5L1.00001 10.09C0.220009 10.45 0.220009 11.56 1.00001 11.91L4.50001 13.5L6.09001 17C6.45001 17.78 7.56001 17.78 7.91001 17L9.50001 13.5L13 11.91C13.78 11.55 13.78 10.44 13 10.09L9.50001 8.5ZM16.54 15L15.75 16.75L14 17.54C13.61 17.72 13.61 18.27 14 18.45L15.75 19.24L16.54 21C16.72 21.39 17.27 21.39 17.45 21L18.24 19.25L20 18.46C20.39 18.28 20.39 17.73 20 17.55L18.25 16.76L17.46 15C17.28 14.61 16.72 14.61 16.54 15Z" fill="#948DE2"/>
</svg>
