<svg width="20" height="20" viewBox="0 0 20 20" fill="none" xmlns="http://www.w3.org/2000/svg">
<path d="M11.81 0.86C11.98 0.56 11.81 0.16 11.46 0.12C8.83999 -0.25 6.15999 0.4 4.01999 1.98C3.82999 2.13 3.76999 2.41 3.89999 2.63L6.90999 7.85C7.09999 8.18 7.57999 8.18 7.77999 7.85L11.81 0.86ZM19.3 6.33C18.32 3.86 16.38 1.87 13.95 0.83C13.72 0.73 13.45 0.83 13.32 1.05L10.31 6.26C10.12 6.58 10.36 7 10.75 7H18.83C19.18 7 19.43 6.65 19.3 6.33ZM19.37 8H13.17C12.79 8 12.54 8.42 12.74 8.75L17 16.14C17.17 16.44 17.6 16.49 17.82 16.22C19.56 14.04 20.3 11.19 19.87 8.43C19.84 8.18 19.62 8 19.37 8ZM2.17999 3.79C0.44999 5.98 -0.30001 8.81 0.12999 11.58C0.15999 11.82 0.37999 12 0.62999 12H6.82999C7.20999 12 7.45999 11.58 7.25999 11.25L2.99999 3.87C2.81999 3.57 2.38999 3.52 2.17999 3.79ZM0.69999 13.67C1.67999 16.14 3.61999 18.13 6.04999 19.17C6.27999 19.27 6.54999 19.17 6.67999 18.95L9.68999 13.74C9.87999 13.41 9.63999 12.99 9.25999 12.99H1.16999C0.81999 13 0.56999 13.35 0.69999 13.67ZM8.52999 19.89C11.15 20.26 13.83 19.61 15.97 18.03C16.17 17.88 16.23 17.59 16.1 17.37L13.09 12.15C12.9 11.82 12.42 11.82 12.22 12.15L8.17999 19.14C8.00999 19.44 8.18999 19.84 8.52999 19.89Z" fill="#D88DB0"/>
</svg>
